<?xml version="1.0" encoding="UTF-8"?>
<svg xmlns="http://www.w3.org/2000/svg" xmlns:xlink="http://www.w3.org/1999/xlink" width="499pt" height="477pt" viewBox="0 0 499 477" version="1.1">
<g id="surface1">
<path style=" stroke:none;fill-rule:nonzero;fill:rgb(0%,0%,0%);fill-opacity:1;" d="M 423.824219 165.164062 L 424.976562 164.082031 L 425.75 163.09375 L 426.527344 162.691406 L 427.441406 162.386719 L 428.757812 162.738281 L 431.296875 163.65625 L 432.074219 164.246094 L 432.917969 165.117188 L 433.132812 166.199219 L 432.753906 169.019531 L 432.753906 170.339844 L 432.378906 171.726562 L 431.601562 172.644531 L 430.992188 173.65625 L 430.828125 174.808594 L 430.523438 176.03125 L 431.203125 176.878906 L 432.144531 177.585938 L 433.601562 178.007812 L 435.363281 179.277344 L 436.445312 180.3125 L 437.21875 181.347656 L 437.597656 182.242188 L 437.292969 183.679688 L 436.914062 184.785156 L 436.84375 186.101562 L 436.84375 195.769531 L 436.75 198.617188 L 433.671875 200.167969 L 430.359375 199.15625 L 427.515625 197.886719 L 426.292969 197.699219 L 421.898438 197.933594 L 419.59375 197.699219 L 417.429688 196.429688 L 416.726562 197.109375 L 415.667969 197.160156 L 414.65625 196.734375 L 413.648438 196.804688 L 412.261719 197.085938 L 410.121094 198.3125 L 409.179688 199.226562 L 408.96875 200.59375 L 408.570312 201.558594 L 409.347656 202.851562 L 410.425781 202.757812 L 411.414062 201.628906 L 412.800781 202.476562 L 414.28125 203.792969 L 413.953125 204.875 L 412.660156 205.414062 L 411.648438 206.214844 L 410.804688 207.4375 L 409.582031 208.519531 L 408.03125 208.214844 L 407.183594 209.109375 L 406.40625 208.710938 L 405.960938 207.910156 L 404.949219 208.191406 L 404.644531 209.226562 L 404.644531 210.332031 L 405.019531 211.484375 L 403.800781 212.378906 L 402.34375 212.921875 L 400.554688 213.15625 L 399.027344 213.460938 L 398.085938 214.542969 L 397.40625 215.980469 L 396.699219 216.121094 L 395.714844 215.226562 L 394.5625 212.992188 L 393.949219 212.238281 L 392.636719 213.039062 L 391.71875 214.144531 L 390.636719 214.683594 L 389.695312 214.308594 L 388.617188 214.191406 L 387.863281 214.730469 L 387.160156 215.695312 L 386.710938 216.894531 L 386.617188 217.859375 L 386.851562 219.25 L 386.171875 220.355469 L 384.785156 220.355469 L 384.148438 219.625 L 383.9375 218.636719 L 383.773438 217.15625 L 382.316406 217.273438 L 381.777344 218.660156 L 380.835938 218.894531 L 382.011719 219.929688 L 382.316406 221.25 L 380.835938 221.71875 L 379.613281 222.261719 L 378.933594 223.367188 L 377.992188 223.90625 L 377.382812 224.402344 L 377.144531 225.484375 L 376.464844 226.304688 L 375.148438 227.058594 L 374.679688 228.257812 L 372.445312 229.175781 L 371.90625 228.425781 L 370.824219 228.234375 L 368.378906 230.070312 L 367.367188 229.835938 L 365.910156 229.71875 L 364.523438 228.117188 L 363.515625 228.425781 L 362.902344 229.339844 L 360.976562 230.917969 L 360.058594 231.53125 L 359.214844 232.800781 L 357.664062 233.082031 L 356.441406 231.929688 L 357.191406 231.269531 L 357.828125 230.304688 L 358.742188 229.53125 L 359.519531 228.328125 L 359.214844 227.035156 L 358.273438 226.023438 L 357.96875 225.175781 L 356.816406 225.554688 L 356.203125 226.613281 L 355.359375 227.460938 L 354.746094 228.1875 L 354.113281 229.222656 L 353.125 229.269531 L 352.421875 228.683594 L 352.117188 227.648438 L 350.730469 227.363281 L 349.4375 227.53125 L 348.121094 227.835938 L 345.277344 226.519531 L 343.890625 225.976562 L 342.503906 225.601562 L 341.117188 226.1875 L 339.871094 226.1875 L 338.71875 227.035156 L 337.332031 227.035156 L 337.332031 225.90625 L 336.554688 224.800781 L 335.097656 225.222656 L 334.183594 225.671875 L 333.710938 226.566406 L 332.796875 226.566406 L 332.089844 225.882812 L 330.867188 226.378906 L 329.410156 227.339844 L 328.164062 229.882812 L 327.484375 232.375 L 327.390625 233.339844 L 327.015625 234.28125 L 327.015625 235.363281 L 327.929688 236.421875 L 328.09375 237.859375 L 327.859375 239.410156 L 327.484375 240.820312 L 325.699219 244.375 L 325.085938 245.832031 L 324.3125 247.222656 L 323.933594 248.066406 L 322.617188 250.421875 L 321.703125 251.621094 L 320.316406 252.347656 L 319.304688 252.347656 L 318.152344 252.632812 L 316.835938 253.265625 L 315.921875 253.621094 L 311.996094 254.632812 L 310.304688 255.242188 L 309.058594 255.902344 L 307.53125 255.714844 L 306.683594 254.867188 L 306.308594 253.738281 L 305.367188 252.820312 L 304.921875 251.363281 L 304.449219 252.515625 L 302.289062 255.3125 L 301.511719 258.9375 L 300.527344 260.75 L 298.902344 262.84375 L 296.671875 265.429688 L 295.964844 266.488281 L 295.449219 267.78125 L 294.671875 268.886719 L 293.898438 269.382812 L 292.039062 270.816406 L 288.726562 273.242188 L 287.878906 274.371094 L 285.882812 277.453125 L 284.894531 278.535156 L 283.648438 279.828125 L 281.652344 280.957031 L 280.101562 282.226562 L 279.488281 282.792969 L 278.714844 283.851562 L 278.269531 285.378906 L 278.949219 286.320312 L 278.808594 287.074219 L 279.726562 288.039062 L 279.796875 289.121094 L 278.949219 289.898438 L 278.503906 291.214844 L 277.960938 292.25 L 278.175781 293.238281 L 276.882812 293.238281 L 275.636719 293.683594 L 274.648438 293.027344 L 274.179688 292.367188 L 274.039062 291.121094 L 273.191406 290.789062 L 271.875 290.390625 L 270.792969 291.285156 L 269.640625 291.355469 L 268.398438 290.933594 L 267.410156 290.695312 L 266.632812 290.085938 L 265.71875 289.167969 L 265.082031 288.203125 L 264.871094 286.226562 L 264.167969 285.472656 L 263.085938 282.839844 L 263.554688 281.449219 L 264.566406 280.535156 L 264.871094 279.5 L 264.472656 278.605469 L 263.929688 277.898438 L 263.929688 271.171875 L 262.707031 270.652344 L 263.554688 269.242188 L 263.789062 267.734375 L 262.78125 266.417969 L 261.933594 265.617188 L 260.617188 265.195312 L 260.007812 263.710938 L 257.46875 262.796875 L 256.785156 261.949219 L 255.773438 260.914062 L 255.234375 260.136719 L 255.46875 259.289062 L 256.152344 258.820312 L 256.152344 256.75 L 255 256.042969 L 254.152344 256.160156 L 253.542969 256.796875 L 253.074219 258.019531 L 251.378906 258.679688 L 250.605469 257.667969 L 249.851562 256.820312 L 247.382812 256.089844 L 246.679688 255.289062 L 245.457031 255.3125 L 244.609375 254.632812 L 245.152344 253.433594 L 245.996094 252.398438 L 245.457031 251.363281 L 244.683594 250.609375 L 244.847656 249.691406 L 245.386719 249.078125 L 246.679688 249.125 L 247.832031 249.339844 L 247.457031 248.183594 L 247.078125 247.457031 L 246.984375 246.351562 L 246.773438 245.054688 L 246.304688 243.457031 L 245.457031 242.632812 L 244.070312 242.140625 L 243.058594 242.398438 L 242.144531 242.820312 L 241.839844 243.691406 L 243.152344 245.691406 L 243.296875 246.679688 L 242.214844 246.609375 L 240.214844 245.925781 L 239.207031 246.445312 L 238.359375 248.890625 L 237.820312 249.691406 L 236.832031 249.386719 L 235.914062 248.726562 L 235.140625 247.878906 L 234.433594 246.914062 L 234.90625 246.019531 L 234.832031 244.796875 L 234.433594 243.363281 L 233.589844 242.679688 L 232.742188 243.246094 L 231.660156 243.292969 L 230.746094 243.996094 L 229.828125 245.03125 L 229.828125 247.078125 L 229.59375 248.609375 L 228.816406 249.644531 L 227.734375 250.351562 L 226.820312 250.703125 L 225.503906 253.667969 L 224.726562 254.867188 L 223.433594 255.40625 L 222.046875 255.195312 L 220.898438 254.394531 L 217.792969 254.46875 L 216.640625 253.359375 L 215.65625 253.054688 L 215.113281 251.808594 L 213.257812 249.878906 L 212.105469 249.925781 L 212.882812 257.359375 L 213.796875 262.300781 L 213.964844 263.5 L 214.035156 265.21875 L 75.789062 265.21875 L 71.390625 265.265625 L 62.859375 265.195312 L 60.628906 263.6875 L 53.152344 258.371094 L 44.972656 252.75 L 43.046875 251.3125 L 33.128906 244.375 L 5.933594 225.53125 L 3.089844 223.414062 L 0.625 221.71875 L 2.996094 220.753906 L 48.148438 204.757812 L 56.539062 201.699219 L 86.878906 190.925781 L 115.90625 180.476562 L 122.839844 177.914062 L 136.871094 172.949219 L 144.015625 170.363281 L 150.175781 167.890625 L 158.660156 164.976562 L 162.113281 163.585938 L 162.960938 163.398438 L 164.207031 162.929688 L 166.4375 162.246094 L 168.601562 161.398438 L 178.613281 157.847656 L 193.164062 152.976562 L 196.78125 144.648438 L 200.402344 136.648438 L 202.46875 131.78125 L 203.246094 130.203125 L 205.171875 125.804688 L 207.875 119.875 L 208.863281 117.453125 L 210.179688 114.628906 L 211.261719 111.972656 L 213.421875 107.265625 L 218.335938 96.140625 L 218.875 94.773438 L 219.511719 93.480469 L 221.742188 88.46875 L 226.417969 77.625 L 227.5 75.320312 L 221.953125 72.070312 L 221.039062 71.460938 L 203.410156 60.710938 L 187.144531 51.226562 L 189.238281 48.191406 L 191.917969 43.558594 L 193.304688 41.511719 L 200.472656 29.371094 L 201.789062 27.253906 L 220.800781 38.265625 L 223.269531 39.769531 L 226.347656 41.464844 L 232.90625 45.371094 L 234.058594 45.980469 L 235.679688 46.523438 L 237.441406 40.007812 L 238.289062 37.160156 L 240.378906 29.492188 L 241.980469 23.9375 L 247.527344 2.578125 L 269.949219 2.554688 L 281.488281 2.460938 L 322.78125 2.578125 L 330.398438 2.339844 L 331.246094 1.777344 L 332.089844 1.425781 L 333.03125 1.472656 L 334.019531 1.425781 L 334.863281 1.070312 L 336.484375 0.625 L 337.261719 1.964844 L 336.722656 3.304688 L 336.484375 4.316406 L 337.027344 5.398438 L 337.941406 6.246094 L 338.578125 7.210938 L 339.09375 8.222656 L 340.175781 9.070312 L 341.1875 10.035156 L 342.339844 10.410156 L 343.253906 10.410156 L 344.101562 11.140625 L 346.96875 12.691406 L 347.578125 13.679688 L 347.578125 16.339844 L 347.273438 17.914062 L 347.414062 19.539062 L 347.34375 20.667969 L 347.507812 21.75 L 347.414062 23.160156 L 347.039062 24.410156 L 346.875 25.445312 L 346.570312 26.550781 L 346.191406 27.253906 L 346.332031 28.03125 L 346.875 28.410156 L 348.191406 28.714844 L 349.578125 29.867188 L 350.117188 31.300781 L 350.492188 32.644531 L 350.730469 33.890625 L 351.128906 35.160156 L 350.824219 36.617188 L 350.28125 37.582031 L 350.351562 39.042969 L 350.65625 40.617188 L 350.421875 41.628906 L 349.953125 42.710938 L 349.953125 43.933594 L 350.1875 44.992188 L 350.046875 45.746094 L 349.953125 46.828125 L 349.953125 48.5 L 349.4375 49.722656 L 348.121094 49.792969 L 347.507812 52.382812 L 347.648438 53.417969 L 348.191406 54.546875 L 348.894531 55.226562 L 349.8125 55.816406 L 349.882812 56.851562 L 350.351562 57.933594 L 351.128906 59.0625 L 351.972656 60.660156 L 351.503906 61.980469 L 351.738281 63.226562 L 352.351562 64.496094 L 353.902344 65.882812 L 355.289062 66.261719 L 356.675781 67.0625 L 357.734375 67.835938 L 358.8125 68.449219 L 360.601562 68.003906 L 362.058594 67.765625 L 363.375 67.039062 L 364.59375 67.367188 L 364.761719 68.613281 L 364.59375 69.835938 L 364.832031 71.035156 L 365.511719 71.929688 L 365.910156 72.847656 L 365.816406 73.976562 L 364.972656 76.753906 L 364.902344 78.589844 L 364.359375 79.105469 L 362.433594 79.363281 L 361.585938 80.375 L 361.988281 81.527344 L 363.679688 82.023438 L 363.984375 84.445312 L 363.28125 85.597656 L 362.527344 85.457031 L 361.515625 85.835938 L 360.976562 86.800781 L 359.964844 87.691406 L 359.214844 88.796875 L 359.753906 89.457031 L 360.742188 90.28125 L 360.292969 93.199219 L 359.824219 93.785156 L 360.128906 94.445312 L 361.445312 94.867188 L 362.597656 96.398438 L 364.289062 98.089844 L 365.371094 98.183594 L 365.980469 98.820312 L 366.523438 99.527344 L 366.992188 100.445312 L 367.746094 101.265625 L 368.519531 100.75 L 368.921875 99.832031 L 369.601562 99.574219 L 370.378906 100.066406 L 371.058594 100.679688 L 372 100.445312 L 372.84375 99.339844 L 374.230469 99.101562 L 375.453125 99.292969 L 376.300781 101.265625 L 377.6875 101.832031 L 379.074219 102.960938 L 381.164062 103.996094 L 381.613281 105.335938 L 382.152344 105.996094 L 386.3125 109.972656 L 387.019531 110.890625 L 387.558594 111.925781 L 388.78125 112.207031 L 390.941406 112.582031 L 392.707031 113.476562 L 394.023438 114.324219 L 394.867188 115.335938 L 395.242188 115.972656 L 396.628906 117.945312 L 397.945312 118.980469 L 398.792969 119.921875 L 400.554688 122.300781 L 403.023438 123.265625 L 404.175781 123.875 L 405.492188 125.191406 L 405.421875 126.535156 L 405.867188 127.851562 L 406.195312 129.191406 L 406.5 130.792969 L 407.347656 131.664062 L 408.875 131.828125 L 409.582031 132.4375 L 410.261719 133.285156 L 411.273438 134.367188 L 412.496094 134.792969 L 413.648438 135.449219 L 414.421875 136.4375 L 414.1875 137.945312 L 414.65625 139.425781 L 414.894531 140.765625 L 415.574219 141.261719 L 416.890625 141.660156 L 418.113281 143.730469 L 417.125 147.238281 L 417.125 148.25 L 418.511719 149.894531 L 419.5 150.671875 L 421.589844 151.871094 L 423.894531 152.058594 L 424.363281 153.09375 L 424.835938 154.601562 L 424.976562 155.847656 L 424.671875 156.695312 L 424.671875 157.539062 L 424.363281 158.269531 L 424.128906 159.375 L 423.589844 160.621094 L 423.046875 161.421875 L 422.90625 162.128906 L 422.132812 163.28125 L 421.730469 164.058594 L 422.507812 164.808594 Z M 423.824219 165.164062 L 423.660156 166.128906 L 424.503906 165.941406 Z M 423.824219 165.164062 "/>
<path style=" stroke:none;fill-rule:nonzero;fill:rgb(0%,0%,0%);fill-opacity:1;" d="M 419.59375 197.699219 L 421.898438 197.933594 L 426.292969 197.699219 L 427.515625 197.886719 L 430.359375 199.15625 L 433.671875 200.167969 L 436.75 199.039062 L 436.75 200.429688 L 436.84375 201.933594 L 437.292969 203.605469 L 438.136719 204.710938 L 438.773438 205.839844 L 439.078125 207.863281 L 438.914062 209.414062 L 438.464844 210.875 L 436.539062 213.460938 L 435.597656 214.589844 L 437.457031 214.261719 L 438.230469 213.414062 L 438.914062 213.765625 L 439.6875 214.003906 L 440.464844 213.296875 L 441.851562 212.308594 L 443.613281 212.074219 L 444.460938 211.109375 L 445.070312 210.027344 L 445 208.402344 L 444.53125 207.179688 L 445.375 206.050781 L 446.761719 205.4375 L 447.46875 204.59375 L 447.539062 203.605469 L 448.007812 202.285156 L 449.230469 203.910156 L 450.851562 205.367188 L 455.390625 210.144531 L 456.632812 211.769531 L 457.175781 213.039062 L 458.089844 213.933594 L 459.546875 214.261719 L 459.101562 215.460938 L 457.621094 216.355469 L 457.316406 217.4375 L 457.175781 218.894531 L 456.632812 220.777344 L 455.316406 223.296875 L 469.65625 232.660156 L 498.375 243.949219 L 490.972656 260.984375 L 489.984375 263.453125 L 487.824219 268.464844 L 484.746094 275.335938 L 481.054688 283.875 L 447.703125 266.839844 L 445.304688 266.605469 L 443.542969 266.535156 L 441.617188 266.769531 L 440.535156 266.839844 L 439.617188 266.464844 L 438.464844 266.839844 L 437.996094 268.160156 L 437.078125 268.511719 L 436 268.699219 L 434.375 267.875 L 433.296875 267.195312 L 432.378906 267.78125 L 431.910156 267.03125 L 431.4375 266.066406 L 430.757812 265.523438 L 430.992188 264.464844 L 430.453125 263.878906 L 429.511719 263.925781 L 428.972656 264.675781 L 427.820312 265.523438 L 426.667969 266.699219 L 425.140625 267.335938 L 424.433594 267.875 L 423.660156 268.722656 L 422.203125 269.96875 L 420.886719 270.699219 L 420.132812 271.476562 L 419.5 272.980469 L 418.886719 274.015625 L 418.113281 274.792969 L 417.738281 276.296875 L 416.890625 277.144531 L 415.574219 277.59375 L 414.492188 277.285156 L 413.648438 277.570312 L 412.730469 277.40625 L 411.648438 277.828125 L 410.496094 278.179688 L 409.652344 278.863281 L 408.5 279.167969 L 407.253906 280.132812 L 405.960938 281.027344 L 403.257812 283.6875 L 402.484375 285.191406 L 402.105469 286.15625 L 401.027344 286.746094 L 399.804688 285.992188 L 398.722656 285.425781 L 398.183594 286.203125 L 395.480469 292.859375 L 394.9375 294.976562 L 394.023438 296.953125 L 392.871094 297.449219 L 392.234375 298.484375 L 391.082031 299.210938 L 389.015625 299.683594 L 383.539062 304.625 L 379.777344 307.847656 L 377.453125 310.128906 L 372.914062 313.75 L 370.613281 316.339844 L 365.441406 321.066406 L 362.667969 320.574219 L 359.121094 319.84375 L 357.355469 319.65625 L 340.035156 315.988281 L 340.105469 317.070312 L 339.800781 318.035156 L 338.953125 319.117188 L 337.707031 319.65625 L 337.636719 320.527344 L 337.402344 321.492188 L 337.871094 322.503906 L 337.496094 323.539062 L 337.332031 324.363281 L 336.414062 324.480469 L 335.335938 323.820312 L 334.019531 323.632812 L 332.796875 324.363281 L 331.480469 324.246094 L 330.796875 323.210938 L 330.164062 322.667969 L 329.246094 322.667969 L 328.402344 322.996094 L 327.859375 322.316406 L 327.390625 321.304688 L 326.847656 320.339844 L 326.097656 319.890625 L 325.390625 320.105469 L 324.476562 319.960938 L 323.160156 318.621094 L 321.9375 318.199219 L 320.152344 317.726562 L 318.625 317.421875 L 317.777344 317.867188 L 316.929688 318.105469 L 315.238281 318.269531 L 313.992188 318.761719 L 312.535156 319.492188 L 310.304688 318.527344 L 309.058594 319.351562 L 307.835938 321.1875 L 306.824219 319.773438 L 306.449219 318.503906 L 305.226562 316.339844 L 303.910156 316.386719 L 303.0625 315.328125 L 301.816406 315.09375 L 300.902344 314.714844 L 299.914062 314.90625 L 299.375 315.84375 L 298.128906 315 L 296.976562 313.941406 L 295.824219 314.410156 L 294.980469 315.609375 L 293.523438 315.023438 L 292.511719 315.609375 L 292.136719 316.878906 L 290.960938 316.953125 L 290.042969 316.597656 L 289.363281 315.679688 L 288.1875 316.152344 L 288.28125 317.609375 L 287.339844 318.035156 L 286.1875 317.328125 L 284.730469 316.691406 L 284.191406 315.492188 L 284.261719 313.917969 L 283.957031 312.835938 L 282.121094 312.480469 L 281.042969 310.953125 L 280.804688 310.082031 L 281.113281 309.234375 L 281.183594 308.082031 L 280.734375 305.46875 L 280.570312 303.164062 L 280.875 301.917969 L 279.890625 301.800781 L 278.949219 302.316406 L 278.503906 302.953125 L 277.726562 301.917969 L 277.328125 301.234375 L 276.8125 300.53125 L 275.496094 300.273438 L 274.648438 299.496094 L 274.34375 298.34375 L 274.648438 297.449219 L 275.257812 296.296875 L 275.332031 294.554688 L 276.105469 293.589844 L 276.882812 293.238281 L 278.175781 293.285156 L 277.960938 292.320312 L 278.503906 291.214844 L 278.949219 289.898438 L 279.796875 289.121094 L 279.726562 288.039062 L 278.808594 287.074219 L 278.949219 286.320312 L 278.269531 285.378906 L 278.714844 283.851562 L 279.488281 282.792969 L 280.101562 282.226562 L 281.652344 280.957031 L 283.648438 279.828125 L 284.894531 278.535156 L 285.882812 277.453125 L 287.878906 274.371094 L 288.726562 273.242188 L 292.039062 270.816406 L 293.898438 269.382812 L 294.671875 268.886719 L 295.449219 267.78125 L 295.964844 266.488281 L 296.671875 265.335938 L 298.902344 262.84375 L 300.527344 260.75 L 301.300781 259.40625 L 301.914062 258.089844 L 302.289062 255.3125 L 303.605469 253.667969 L 305.0625 251.691406 L 305.367188 252.75 L 306.214844 253.691406 L 306.683594 254.867188 L 307.53125 255.714844 L 309.058594 255.902344 L 310.375 255.503906 L 311.996094 254.632812 L 315.921875 253.621094 L 316.835938 253.265625 L 318.152344 252.632812 L 319.304688 252.347656 L 320.316406 252.347656 L 321.703125 251.621094 L 322.617188 250.421875 L 323.933594 248.066406 L 324.3125 247.222656 L 325.085938 245.832031 L 325.699219 244.375 L 327.484375 240.820312 L 327.859375 239.410156 L 328.09375 237.859375 L 327.929688 236.421875 L 327.015625 235.363281 L 327.015625 234.28125 L 327.390625 233.339844 L 327.484375 232.375 L 328.164062 229.882812 L 328.777344 228.660156 L 329.175781 227.695312 L 330.023438 226.636719 L 331.480469 226.304688 L 332.394531 226.378906 L 333.570312 226.566406 L 334.183594 225.671875 L 335.097656 225.222656 L 336.554688 224.800781 L 337.332031 225.90625 L 337.191406 226.871094 L 338.34375 227.414062 L 338.953125 226.566406 L 339.871094 226.1875 L 341.117188 226.1875 L 342.503906 225.601562 L 343.960938 225.976562 L 346.332031 226.988281 L 348.121094 227.835938 L 349.4375 227.53125 L 350.730469 227.363281 L 352.117188 227.648438 L 352.421875 228.683594 L 353.125 229.269531 L 354.113281 229.222656 L 355.054688 227.765625 L 356.203125 226.847656 L 356.886719 225.554688 L 357.96875 225.175781 L 358.273438 226.023438 L 359.214844 227.035156 L 359.519531 228.328125 L 358.742188 229.53125 L 357.734375 230.304688 L 357.191406 231.269531 L 356.441406 231.929688 L 357.664062 233.082031 L 359.214844 232.800781 L 360.058594 231.53125 L 360.976562 230.917969 L 362.902344 229.339844 L 363.515625 228.425781 L 364.523438 228.117188 L 365.910156 229.71875 L 367.367188 229.835938 L 368.378906 230.070312 L 370.824219 228.234375 L 371.90625 228.425781 L 372.445312 229.175781 L 374.136719 228.496094 L 375.148438 227.058594 L 376.464844 226.304688 L 377.144531 225.484375 L 377.382812 224.402344 L 377.992188 223.90625 L 378.839844 223.648438 L 379.449219 222.472656 L 380.835938 221.71875 L 382.222656 221.320312 L 382.457031 220.332031 L 381.542969 219.695312 L 380.835938 218.894531 L 381.777344 218.660156 L 382.316406 217.273438 L 383.773438 217.15625 L 383.9375 218.636719 L 384.148438 219.625 L 384.785156 220.355469 L 386.171875 220.355469 L 386.851562 219.25 L 386.617188 217.859375 L 386.710938 216.894531 L 387.628906 215.085938 L 388.617188 214.191406 L 389.695312 214.308594 L 390.636719 214.683594 L 391.789062 214.074219 L 392.707031 212.96875 L 393.949219 212.238281 L 394.5625 212.992188 L 395.714844 215.226562 L 396.699219 216.121094 L 397.40625 215.980469 L 398.085938 214.542969 L 399.027344 213.460938 L 400.484375 213.15625 L 402.035156 212.992188 L 403.5625 212.496094 L 405.019531 211.484375 L 404.644531 210.332031 L 404.644531 209.226562 L 404.949219 208.191406 L 406.03125 208.097656 L 407.183594 209.109375 L 408.03125 208.214844 L 409.582031 208.519531 L 410.804688 207.4375 L 411.648438 206.214844 L 412.660156 205.414062 L 414.046875 204.898438 L 414.28125 203.792969 L 412.800781 202.476562 L 411.414062 201.628906 L 410.425781 202.757812 L 409.347656 202.851562 L 408.570312 201.558594 L 408.96875 200.59375 L 409.109375 199.347656 L 409.816406 198.5 L 412.261719 197.085938 L 413.648438 196.804688 L 414.65625 196.734375 L 415.667969 197.160156 L 416.726562 197.109375 L 417.429688 196.429688 L 418.207031 196.851562 Z M 419.59375 197.699219 "/>
<path style=" stroke:none;fill-rule:nonzero;fill:rgb(0%,0%,0%);fill-opacity:1;" d="M 246.984375 246.351562 L 247.3125 247.808594 L 247.832031 249.339844 L 246.679688 249.125 L 245.152344 249.386719 L 245.058594 250.960938 L 245.996094 252.398438 L 244.988281 253.667969 L 244.988281 255.007812 L 246.609375 255.289062 L 247.382812 256.089844 L 249.851562 256.820312 L 250.605469 257.667969 L 251.378906 258.679688 L 253.074219 258.019531 L 253.542969 256.796875 L 254.859375 256.136719 L 256.082031 256.867188 L 255.847656 259.054688 L 255.46875 260.488281 L 257.539062 262.652344 L 258.785156 263.265625 L 260.007812 263.6875 L 260.617188 265.195312 L 261.933594 265.617188 L 262.78125 266.417969 L 263.625 267.6875 L 263.554688 269.242188 L 262.707031 270.652344 L 263.929688 271.171875 L 263.929688 277.476562 L 264.707031 279.027344 L 264.566406 280.535156 L 263.390625 281.921875 L 263.789062 284.460938 L 264.566406 285.851562 L 265.082031 288.203125 L 265.71875 289.167969 L 267.011719 290.390625 L 269.640625 291.355469 L 270.792969 291.285156 L 271.875 290.390625 L 273.636719 290.933594 L 274.414062 292.671875 L 275.332031 293.472656 L 275.1875 294.71875 L 275.257812 296.296875 L 274.484375 297.871094 L 274.648438 299.496094 L 275.496094 300.273438 L 276.8125 300.53125 L 277.5625 301.566406 L 278.714844 302.625 L 280.429688 301.847656 L 280.734375 305.46875 L 281.183594 308.082031 L 280.949219 309.632812 L 281.347656 311.328125 L 282.570312 312.597656 L 283.957031 312.835938 L 284.261719 313.917969 L 284.191406 315.492188 L 284.730469 316.691406 L 286.1875 317.304688 L 287.808594 317.796875 L 288.1875 316.152344 L 289.363281 315.679688 L 290.511719 316.761719 L 292.136719 316.878906 L 292.511719 315.609375 L 293.664062 315.257812 L 294.980469 315.609375 L 295.824219 314.410156 L 296.976562 313.941406 L 298.128906 315 L 299.679688 315.375 L 301.371094 314.882812 L 303.0625 315.328125 L 303.910156 316.386719 L 305.4375 316.761719 L 306.449219 318.503906 L 306.824219 319.773438 L 308.140625 320.738281 L 309.058594 319.351562 L 310.304688 318.527344 L 312.535156 319.492188 L 313.992188 318.761719 L 315.238281 318.269531 L 317.378906 317.960938 L 318.625 317.421875 L 320.152344 317.726562 L 321.9375 318.199219 L 323.160156 318.621094 L 324.476562 319.960938 L 325.792969 319.960938 L 326.847656 320.339844 L 328.164062 322.667969 L 329.714844 322.667969 L 331.101562 323.65625 L 332.796875 324.363281 L 334.019531 323.632812 L 335.335938 323.820312 L 338.25 325.160156 L 338.484375 326.855469 L 338.578125 328.289062 L 339.941406 328.785156 L 341.1875 328.527344 L 342.339844 328.855469 L 343.890625 328.410156 L 344.335938 329.632812 L 344.101562 331.488281 L 344.804688 333.113281 L 347.109375 334.832031 L 347.8125 335.675781 L 347.109375 336.808594 L 347.8125 338.546875 L 347.578125 340.007812 L 348.121094 341.113281 L 349.269531 341.535156 L 351.667969 341.160156 L 352.515625 340.972656 L 354.277344 341.347656 L 355.429688 342.007812 L 356.277344 343.582031 L 356.039062 344.945312 L 357.121094 346.945312 L 357.664062 348.757812 L 357.828125 349.980469 L 359.046875 352.734375 L 361.28125 356.546875 L 362.199219 357.273438 L 363.445312 358.734375 L 363.679688 360.050781 L 363.375 361.15625 L 362.832031 362.121094 L 362.597656 363.4375 L 363.820312 364.144531 L 363.75 365.859375 L 363.914062 367.414062 L 364.523438 368.144531 L 364.902344 370.425781 L 362.597656 372.917969 L 360.433594 374.613281 L 359.519531 376.355469 L 360.058594 377.269531 L 361.351562 378.636719 L 361.820312 379.742188 L 360.742188 381.246094 L 360.742188 382.328125 L 361.820312 383.058594 L 363.066406 382.753906 L 364.453125 383.410156 L 363.984375 385.222656 L 363.207031 386.492188 L 364.453125 389.035156 L 365.605469 390.492188 L 366.453125 391.386719 L 367.367188 392.914062 L 368.683594 393.621094 L 370.140625 392.890625 L 372.304688 397.007812 L 374.609375 401.101562 L 392.777344 424.179688 L 381.375 436.910156 L 360.601562 460.410156 L 355.828125 463.421875 L 348.964844 467.328125 L 335.027344 476.386719 L 322.925781 459.964844 L 309.761719 443.871094 L 304.921875 438.179688 L 302.523438 435.449219 L 300.761719 433.285156 L 297.140625 429.355469 L 295.449219 428.699219 L 293.121094 429.074219 L 292.675781 427.851562 L 291.664062 425.6875 L 290.277344 425.144531 L 287.976562 425.3125 L 287.667969 423.453125 L 287.128906 421.828125 L 281.652344 418.253906 L 278.410156 415.664062 L 274.039062 412.890625 L 272.863281 412.230469 L 269.878906 409.996094 L 267.949219 408.65625 L 263.859375 405.878906 L 261.933594 404.679688 L 253.238281 398.398438 L 244.683594 392.421875 L 240.214844 389.410156 L 233.824219 384.871094 L 226.207031 379.625 L 222.425781 376.847656 L 217.886719 373.882812 L 214.105469 370.988281 L 204.257812 364.167969 L 62.929688 265.21875 L 71.390625 265.265625 L 75.789062 265.21875 L 214.035156 265.21875 L 213.964844 263.5 L 213.796875 262.300781 L 212.882812 257.359375 L 212.339844 249.925781 L 213.867188 250.398438 L 215.113281 251.808594 L 216.195312 253.242188 L 217.792969 254.515625 L 220.898438 254.394531 L 222.046875 255.195312 L 223.433594 255.40625 L 224.726562 254.867188 L 225.503906 253.667969 L 226.347656 251.808594 L 227.289062 250.515625 L 228.816406 249.621094 L 229.59375 248.609375 L 229.828125 247.078125 L 229.828125 245.03125 L 230.746094 243.996094 L 232.203125 243.222656 L 234.128906 243.058594 L 234.832031 244.796875 L 234.667969 246.421875 L 235.140625 247.878906 L 235.914062 248.726562 L 236.832031 249.386719 L 238.148438 249.269531 L 238.828125 247.644531 L 239.207031 246.421875 L 240.6875 245.996094 L 242.753906 246.65625 L 242.917969 245.292969 L 241.980469 243.222656 L 243.601562 242.257812 L 245.457031 242.632812 L 246.304688 243.457031 L 246.773438 245.03125 Z M 246.984375 246.351562 "/>
<path style=" stroke:none;fill-rule:nonzero;fill:rgb(0%,0%,0%);fill-opacity:1;" d="M 436 268.699219 L 437.078125 268.511719 L 438.066406 267.996094 L 438.464844 266.839844 L 439.617188 266.464844 L 440.699219 266.886719 L 443.472656 266.535156 L 445.304688 266.605469 L 447.703125 266.839844 L 481.054688 283.875 L 449.535156 355.816406 L 424.835938 388.070312 L 392.777344 424.179688 L 374.609375 401.101562 L 372.304688 397.007812 L 370.140625 392.890625 L 368.683594 393.621094 L 367.367188 392.914062 L 366.453125 391.386719 L 365.605469 390.492188 L 364.453125 389.035156 L 363.207031 386.492188 L 363.984375 385.222656 L 364.453125 383.410156 L 363.066406 382.753906 L 361.820312 383.058594 L 360.742188 382.328125 L 360.742188 381.175781 L 361.820312 379.742188 L 361.351562 378.636719 L 359.824219 376.824219 L 360.433594 374.613281 L 362.597656 372.917969 L 364.902344 370.425781 L 364.453125 367.980469 L 363.820312 367.414062 L 363.75 364.144531 L 362.597656 363.4375 L 362.738281 362.167969 L 363.375 361.15625 L 363.679688 360.050781 L 363.515625 358.851562 L 362.527344 357.507812 L 361.28125 356.546875 L 359.046875 352.734375 L 357.828125 349.980469 L 357.664062 348.757812 L 357.121094 346.945312 L 355.828125 345.792969 L 356.277344 343.582031 L 355.429688 342.007812 L 354.277344 341.347656 L 352.585938 340.972656 L 350.824219 341.230469 L 349.269531 341.535156 L 348.121094 341.113281 L 347.578125 340.007812 L 347.71875 338.3125 L 347.109375 336.808594 L 347.8125 335.675781 L 347.109375 334.832031 L 345.722656 333.84375 L 344.804688 333.066406 L 344.101562 331.488281 L 344.335938 329.632812 L 343.890625 328.410156 L 342.339844 328.855469 L 341.1875 328.527344 L 339.871094 328.832031 L 338.578125 328.289062 L 338.484375 326.855469 L 338.25 325.160156 L 337.496094 323.9375 L 337.871094 322.457031 L 337.402344 321.46875 L 337.707031 320.082031 L 338.953125 318.996094 L 339.800781 317.960938 L 340.105469 316.878906 L 351.035156 318.457031 L 357.355469 319.65625 L 359.121094 319.84375 L 362.667969 320.574219 L 365.441406 321.042969 L 373.082031 314.105469 L 377.546875 310.292969 L 379.777344 308.082031 L 387.019531 301.425781 L 389.015625 299.683594 L 391.082031 299.1875 L 392.234375 298.484375 L 392.871094 297.449219 L 394.023438 296.953125 L 394.9375 294.976562 L 395.714844 293.097656 L 399.570312 285.734375 L 400.957031 286.695312 L 402.34375 285.683594 L 403.421875 283.542969 L 405.5625 281.425781 L 407.582031 279.828125 L 409.179688 278.957031 L 410.261719 278.441406 L 412.730469 277.40625 L 414.1875 277.40625 L 415.574219 277.59375 L 416.890625 277.144531 L 417.738281 276.324219 L 418.042969 275.050781 L 418.886719 274.015625 L 420.273438 271.40625 L 423.660156 268.699219 L 425.046875 267.453125 L 426.738281 266.582031 L 429.300781 264.230469 L 430.757812 264.160156 L 431.132812 265.757812 L 431.855469 266.917969 L 432.144531 267.382812 L 433.367188 267.195312 L 434.683594 267.996094 Z M 436 268.699219 "/>
</g>
</svg>
