<?xml version="1.0" encoding="UTF-8"?>
<svg xmlns="http://www.w3.org/2000/svg" xmlns:xlink="http://www.w3.org/1999/xlink" width="500pt" height="593pt" viewBox="0 0 500 593" version="1.1">
<g id="surface1">
<path style=" stroke:none;fill-rule:nonzero;fill:rgb(0%,0%,0%);fill-opacity:1;" d="M 306.441406 260.359375 L 296.824219 276.078125 L 294.382812 285.84375 L 288.890625 294.695312 L 280.339844 298.660156 L 282.324219 290.878906 L 281.734375 286.679688 L 279.140625 284.609375 L 274.203125 282.535156 L 271.867188 279.945312 L 258.878906 268.808594 L 249.011719 264.921875 L 240.960938 259.742188 L 234.726562 250.675781 L 232.90625 242.386719 L 233.6875 233.320312 L 239.660156 218.816406 L 240.179688 205.34375 L 235.765625 194.464844 L 227.714844 185.660156 L 221.480469 183.066406 L 214.988281 180.996094 L 210.050781 175.554688 L 203.039062 166.75 L 192.648438 162.601562 L 183.558594 164.417969 L 161.484375 166.230469 L 146.417969 164.15625 L 138.109375 160.789062 L 131.613281 155.089844 L 129.796875 148.875 L 129.796875 138.257812 L 126.789062 126.828125 L 130.300781 113.398438 L 125.878906 110.796875 L 118.125 109.5625 L 116.160156 105.128906 L 111.453125 102.582031 L 110.140625 100.695312 L 110.027344 99.652344 L 110.21875 98.726562 L 111.761719 96.375 L 112.53125 98.109375 L 114.769531 99.496094 L 116.160156 99.652344 L 119.632812 98.535156 L 121.597656 97.105469 L 122.792969 96.757812 L 131.433594 97.183594 L 135.410156 96.953125 L 137.492188 95.949219 L 138.996094 91.824219 L 140.65625 90.9375 L 142.777344 90.703125 L 143.972656 91.746094 L 144.367188 94.5625 L 147.117188 97.089844 L 146.488281 98.800781 L 147.890625 103.296875 L 149.117188 105.804688 L 155.132812 109.367188 L 156.882812 110.011719 L 159.804688 110.070312 L 163.484375 109.367188 L 167.105469 107.964844 L 183.875 99.664062 L 187.851562 97.984375 L 192.632812 96.578125 L 202.546875 97.566406 L 209.484375 100.871094 L 215.433594 100.539062 L 217.417969 97.566406 L 215.433594 91.953125 L 211.136719 87.328125 L 207.867188 86.035156 L 206.488281 84.289062 L 205.636719 82.421875 L 205.269531 80.148438 L 205.636719 77.308594 L 206.773438 75.84375 L 213.632812 70.484375 L 217.371094 69.472656 L 220.070312 67.203125 L 221.019531 67.152344 L 222.398438 67.96875 L 223.632812 68.035156 L 224.046875 67.4375 L 224.148438 64.824219 L 222.949219 61.265625 L 222.117188 61.300781 L 220.851562 62.296875 L 216.894531 62.132812 L 214.617188 61.597656 L 214.25 60.617188 L 215.878906 58.523438 L 214.800781 54.464844 L 213.632812 53.757812 L 210.710938 53.273438 L 210.710938 52.21875 L 213.878906 50.835938 L 214.976562 49.132812 L 217.207031 47.0625 L 216.761719 45.152344 L 215.460938 43.851562 L 214.933594 42.636719 L 214.8125 40.726562 L 214.347656 40.058594 L 213.148438 39.671875 L 211.523438 38.167969 L 210.304688 38.046875 L 207.625 40.363281 L 206 40.363281 L 203.089844 38.628906 L 202.707031 35.875 L 199.953125 34.894531 L 197.972656 29.984375 L 194.960938 28.175781 L 192.269531 27.132812 L 192.230469 26.570312 L 189.015625 27.050781 L 193.753906 21.550781 L 195.84375 15.886719 L 199.578125 13.640625 L 215.316406 9.628906 L 257.292969 3.066406 L 270.878906 3.066406 L 278.816406 6.882812 L 288.429688 6.882812 L 297.4375 9.324219 L 313.3125 10.542969 L 320.332031 4.59375 L 328.878906 0.625 L 339.871094 5.050781 L 338.953125 15.886719 L 336.96875 28.550781 L 336.359375 40.148438 L 341.394531 51.136719 L 349.332031 59.835938 L 362.917969 65.785156 L 373.449219 75.554688 L 385.964844 79.828125 L 404.894531 82.574219 L 417.410156 81.046875 L 428.398438 73.875 L 440.914062 82.574219 L 450.988281 88.832031 L 457.859375 90.8125 L 478.003906 92.796875 L 489.910156 90.660156 L 498 94.628906 L 499.375 103.175781 L 495.40625 111.875 L 480.449219 122.402344 L 476.9375 128.660156 L 467.472656 139.800781 L 455.414062 152.3125 L 450.378906 158.113281 L 437.863281 173.832031 L 430.382812 183.902344 L 424.886719 195.804688 L 426.414062 206.640625 L 417.867188 216.101562 L 406.898438 217.449219 L 398.480469 214.882812 L 389.476562 212.898438 L 380.929688 209.082031 L 369.9375 206.640625 L 362.460938 203.589844 L 354.828125 202.0625 L 346.890625 202.0625 L 333.917969 205.421875 L 328.878906 212.136719 L 320.332031 231.363281 L 314.835938 240.671875 L 310.867188 249.066406 Z M 306.441406 260.359375 "/>
<path style=" stroke:none;fill-rule:nonzero;fill:rgb(0%,0%,0%);fill-opacity:1;" d="M 209.363281 359.09375 L 202.34375 347.648438 L 198.832031 343.832031 L 194.40625 323.078125 L 190.894531 316.058594 L 189.828125 298.660156 L 188.910156 294.695312 L 188.910156 289.199219 L 192.878906 287.0625 L 196.847656 287.675781 L 201.886719 289.65625 L 207.839844 290.421875 L 211.808594 287.0625 L 217.300781 280.347656 L 219.941406 276.492188 L 223.730469 275.433594 L 232.214844 270.449219 L 243.425781 268.183594 L 251.609375 269.542969 L 256.152344 271.65625 L 260.09375 275.585938 L 264.636719 281.78125 L 268.425781 285.257812 L 279.882812 289.621094 L 279.792969 289.933594 L 280.695312 292.507812 L 280.242188 295.53125 L 278.726562 298.855469 L 273.425781 303.238281 L 270.089844 307.316406 L 270.546875 310.792969 L 272.210938 313.8125 L 275.089844 315.175781 L 281 314.570312 L 285.828125 316.027344 L 284.921875 328.417969 L 285.835938 334.675781 L 288.890625 338.644531 L 292.398438 342.308594 L 293.925781 347.34375 L 289.347656 349.328125 L 293.316406 359.09375 L 293.316406 362.910156 L 294.839844 374.660156 L 290.414062 378.167969 L 286.90625 379.847656 L 281.867188 381.070312 L 275.914062 384.578125 L 272.863281 390.070312 L 269.808594 393.886719 L 256.835938 394.648438 L 252.867188 390.835938 L 249.8125 394.957031 L 243.402344 392.359375 L 223.867188 372.371094 L 216.386719 366.570312 Z M 209.363281 359.09375 "/>
<path style=" stroke:none;fill-rule:nonzero;fill:rgb(0%,0%,0%);fill-opacity:1;" d="M 159.910156 223.886719 L 154.261719 221.902344 L 141.289062 218.851562 L 135.792969 217.933594 L 130.648438 217.613281 L 104.800781 218.328125 L 96.65625 215.273438 L 89.738281 215.476562 L 89.636719 221.277344 L 95.234375 224.125 L 94.519531 239.792969 L 89.433594 237.863281 L 87.804688 242.746094 L 86.339844 251.660156 L 84.8125 255.933594 L 80.84375 259.898438 L 79.316406 265.089844 L 76.925781 268.632812 L 74.777344 269.6875 L 73.417969 269.917969 L 71.074219 267.859375 L 55.5625 277.441406 L 55.398438 275.054688 L 54.265625 273.40625 L 51.859375 271.652344 L 51.300781 269.222656 L 49.0625 266.800781 L 44.648438 265.972656 L 41.6875 264.261719 L 40.097656 263.792969 L 38.34375 263.613281 L 32.164062 264.140625 L 27.628906 262.296875 L 24.648438 261.648438 L 22.515625 260.226562 L 16.847656 254.316406 L 14.972656 253.335938 L 11.089844 252.835938 L 10.167969 252.339844 L 7.355469 248.621094 L 6.734375 246.714844 L 6.855469 242.9375 L 6.371094 240.867188 L 4.785156 238.128906 L 1.339844 235.589844 L 0.625 233.902344 L 1.320312 232.898438 L 1.3125 231.128906 L 1.777344 230.140625 L 4.832031 227.546875 L 8.34375 223.429688 L 10.328125 216.867188 L 11.332031 209.402344 L 10.65625 203.445312 L 12.507812 189.917969 L 14.003906 182.082031 L 28.972656 162.71875 L 25.304688 162.335938 L 24.773438 161.191406 L 24.628906 158.375 L 23.308594 157.699219 L 21.28125 158.199219 L 12.476562 151.125 L 12.273438 150.421875 L 13.035156 146.316406 L 13.210938 139.828125 L 18.816406 137.746094 L 21.925781 134.753906 L 24.453125 134.8125 L 33.550781 132.054688 L 48.34375 126.65625 L 49.398438 115.945312 L 70.3125 95.085938 L 78.828125 86.878906 L 81.953125 84.371094 L 82.972656 80.394531 L 83.585938 79.527344 L 88.6875 76.3125 L 90.472656 76.3125 L 91.441406 77.078125 L 92.207031 79.832031 L 97.308594 86.3125 L 98.074219 86.617188 L 100.648438 86.328125 L 101.746094 87.816406 L 102.921875 88.601562 L 111.148438 92.570312 L 112.089844 94.214844 L 111.75 96.304688 L 108.09375 99.988281 L 99.734375 111.375 L 99.707031 113.046875 L 100.28125 114.246094 L 101.746094 115.371094 L 103.078125 115.628906 L 107.910156 115.316406 L 114.179688 117.378906 L 122.144531 121.246094 L 124.132812 123.074219 L 125.59375 125.214844 L 126.039062 126.9375 L 126.066406 131.378906 L 125.515625 136.292969 L 123.085938 146.945312 L 120.605469 151.203125 L 120.136719 153.082031 L 122.121094 157.757812 L 123.738281 159.011719 L 135.101562 164.234375 L 145.003906 169.847656 L 150.070312 172.015625 L 153.179688 172.851562 L 156.054688 172.929688 L 172.328125 171.050781 L 182.539062 171.078125 L 192.886719 172.566406 L 195.730469 174.496094 L 198.816406 180.792969 L 198.816406 184.96875 L 199.285156 187.738281 L 199.257812 194.921875 L 201.269531 202.808594 L 203.125 207.117188 L 204.796875 213.828125 L 205.839844 215.65625 L 207.878906 217.902344 L 210.910156 219.601562 L 218.796875 225.476562 L 220.367188 226.859375 L 220.808594 228.140625 L 221.878906 229.34375 L 221.882812 239.921875 L 222.339844 241.425781 L 222.328125 243.367188 L 225.851562 253.1875 L 227.785156 257.375 L 231.820312 263.890625 L 229.816406 264.730469 L 227.15625 268.289062 L 224.34375 270.53125 L 223.894531 272.054688 L 219.949219 276.449219 L 217.136719 280.308594 L 212.230469 277.707031 L 205.171875 276.988281 L 199.28125 274.539062 L 194.945312 274.296875 L 190.699219 272.804688 L 178.589844 272.542969 L 170.507812 271.382812 L 170.304688 268.453125 L 171.921875 264.109375 L 173.789062 255.671875 L 173.34375 236.855469 L 165.40625 226.632812 Z M 159.910156 223.886719 "/>
<path style=" stroke:none;fill-rule:nonzero;fill:rgb(0%,0%,0%);fill-opacity:1;" d="M 306.441406 260.359375 L 311.320312 247.257812 L 314.054688 241.621094 L 320.972656 230.988281 L 324.21875 219.546875 L 325.796875 215.960938 L 331.933594 208.167969 L 332.675781 207.070312 L 333.613281 204.175781 L 335.320312 201.957031 L 352.175781 202.015625 L 360.933594 202.644531 L 362.773438 203.449219 L 365.433594 205.691406 L 367.804688 206.5625 L 371.527344 207.09375 L 376.804688 206.902344 L 380.820312 209.417969 L 389.527344 212.898438 L 396.203125 214.980469 L 400.558594 215.367188 L 406.984375 217.398438 L 417.988281 216.582031 L 423.078125 217.917969 L 424.148438 226.195312 L 426.023438 234.742188 L 425.484375 244.359375 L 423.078125 253.4375 L 420.933594 257.976562 L 415.847656 263.050781 L 405.402344 268.660156 L 385.050781 296.433594 L 375.945312 310.855469 L 369.519531 322.605469 L 362.289062 329.28125 L 357.46875 335.957031 L 352.917969 346.640625 L 348.097656 353.050781 L 340.867188 359.460938 L 331.226562 364.535156 L 316.5 365.335938 L 303.914062 364.800781 L 300.433594 360.527344 L 295.359375 348.84375 L 295.132812 346.183594 L 293.417969 340.019531 L 290.929688 336.652344 L 290.222656 334.914062 L 290.394531 333.417969 L 291.632812 332.566406 L 291.972656 328.894531 L 291.546875 324.878906 L 290.007812 321.378906 L 289.539062 319.160156 L 289.925781 317.410156 L 291.972656 313.488281 L 290.996094 312.097656 L 288.902344 311.679688 L 286.109375 311.679688 L 275.917969 313.070312 L 273.125 310.984375 L 272.285156 308.058594 L 274.660156 305.550781 L 278.988281 303.183594 L 285.132812 299.980469 L 290.859375 297.957031 L 289.796875 295.675781 L 289.539062 293.457031 L 292.613281 289.570312 L 294.023438 288.375 L 293.851562 284.957031 L 296.511719 278.941406 L 297.140625 274.242188 Z M 306.441406 260.359375 "/>
<path style=" stroke:none;fill-rule:nonzero;fill:rgb(0%,0%,0%);fill-opacity:1;" d="M 209.363281 359.09375 L 216.386719 366.417969 L 224.324219 373.132812 L 239.890625 388.394531 L 250.425781 396.632812 L 264.3125 399.839844 L 280.339844 400.90625 L 283.851562 409.605469 L 282.324219 419.066406 L 282.324219 426.085938 L 281.410156 435.699219 L 271.335938 456.914062 L 260.804688 474.460938 L 254.851562 481.941406 L 253.324219 494.605469 L 248.898438 502.847656 L 239.433594 509.105469 L 232.871094 523.449219 L 229.816406 534.894531 L 224.933594 550.613281 L 216.386719 569.6875 L 209.363281 592.425781 L 197.917969 584.183594 L 173.800781 568.925781 L 156.859375 557.175781 L 160.367188 550.460938 L 165.863281 541.609375 L 169.375 529.398438 L 171.816406 513.835938 L 174.867188 510.476562 L 180.363281 507.578125 L 183.875 504.21875 L 184.789062 499.183594 L 179.90625 497.660156 L 175.328125 497.351562 L 171.359375 494.148438 L 167.390625 484.839844 L 158.84375 473.394531 L 128.320312 441.8125 L 121.460938 433.808594 L 118.113281 432.175781 L 115.253906 428.664062 L 113.128906 422.050781 L 112.3125 420.988281 L 111.25 420.664062 L 107.328125 421.722656 L 106.757812 422.214844 L 107.410156 426.460938 L 106.511719 430.789062 L 105.941406 437.566406 L 104.796875 439.851562 L 100.304688 442.875 L 93.605469 444.507812 L 91.320312 445.976562 L 88.707031 449.164062 L 87.480469 451.53125 L 88.296875 455.941406 L 89.195312 457.738281 L 90.421875 462.390625 L 90.765625 471.867188 L 86.796875 478.886719 L 82.222656 484.183594 L 79.675781 486.589844 L 69.828125 486.730469 L 62.386719 492.054688 L 59.488281 493.597656 L 58.570312 494.449219 L 57.4375 497.421875 L 56.65625 497.777344 L 54.746094 497.988281 L 52.621094 497.492188 L 45.820312 492.113281 L 46.601562 491.050781 L 49.714844 490.625 L 51.839844 489.492188 L 53.1875 487.296875 L 53.753906 483.261719 L 54.675781 480.429688 L 58.921875 477.808594 L 59.914062 476.25 L 61.402344 473.207031 L 61.191406 471.222656 L 60.054688 470.019531 L 59.5625 467.96875 L 60.835938 466.054688 L 62.890625 465.628906 L 65.4375 465.773438 L 67.421875 466.90625 L 70.769531 462.710938 L 64.816406 455.082031 L 61.511719 448.757812 L 59.488281 445.734375 L 59.066406 444.175781 L 59.347656 441.625 L 60.054688 440.140625 L 60.054688 438.699219 L 58.425781 432.492188 L 52.125 429.09375 L 50.355469 427.253906 L 49.644531 425.058594 L 49.503906 422.226562 L 49.789062 419.253906 L 50.707031 417.058594 L 52.480469 415.214844 L 53.1875 413.871094 L 52.902344 410.898438 L 57.367188 400.84375 L 57.292969 399 L 56.304688 396.3125 L 54.957031 394.398438 L 54.320312 392.0625 L 54.601562 389.441406 L 55.523438 388.308594 L 60.238281 385.953125 L 65.734375 381.375 L 69.246094 370.386719 L 66.34375 363.671875 L 70.769531 354.667969 L 89.851562 352.835938 L 108.320312 352.074219 L 122.820312 357.566406 L 130.757812 355.582031 L 127.398438 350.699219 L 135.792969 344.902344 L 147.851562 344.597656 L 160.367188 351.15625 L 173.800781 346.121094 L 180.363281 340.171875 L 177.3125 333.609375 L 177.769531 326.128906 L 180.820312 319.109375 L 190.894531 316.667969 L 194.863281 325.367188 L 196.390625 332.84375 L 200.359375 346.425781 Z M 209.363281 359.09375 "/>
<path style=" stroke:none;fill-rule:nonzero;fill:rgb(0%,0%,0%);fill-opacity:1;" d="M 141.289062 218.851562 L 159.910156 223.886719 L 168.917969 230.601562 L 172.273438 235.636719 L 173.34375 239.910156 L 173.789062 255.238281 L 171.644531 264.835938 L 170.328125 268.445312 L 170.621094 271.320312 L 178.273438 272.585938 L 189.339844 272.878906 L 198.796875 274.488281 L 205.132812 276.925781 L 211.664062 277.605469 L 213.46875 278.144531 L 217.175781 280.289062 L 210.445312 288.964844 L 209.179688 290.277344 L 207.960938 290.667969 L 203.230469 290.277344 L 196.914062 287.648438 L 192.816406 287.019531 L 189.910156 287.382812 L 189.082031 288.210938 L 188.519531 289.929688 L 188.6875 294.023438 L 189.511719 297.492188 L 188.324219 297.957031 L 188.324219 299.507812 L 187.398438 302.21875 L 183.367188 303.871094 L 175.863281 304.5625 L 169.585938 304.628906 L 168.332031 304.992188 L 167.371094 303.835938 L 165.390625 303.902344 L 158.449219 310.082031 L 152.929688 312.394531 L 151.378906 312.0625 L 150.949219 310.875 L 149.429688 310.445312 L 147.839844 310.875 L 145.761719 310.378906 L 143.941406 310.445312 L 142.324219 311.304688 L 140.835938 310.378906 L 141.296875 308.097656 L 139.25 306.578125 L 133.929688 304.199219 L 129.996094 303.042969 L 126.792969 302.613281 L 117.339844 304.136719 L 115.753906 304.992188 L 109.542969 306.910156 L 101.347656 307.40625 L 99.660156 306.84375 L 98.570312 307.933594 L 97.015625 308.199219 L 90.109375 307.007812 L 69.457031 306.910156 L 61.164062 309.75 L 58.386719 311.203125 L 53.992188 311.238281 L 51.480469 310.082031 L 49.332031 308.496094 L 48.835938 303.671875 L 50.355469 300.136719 L 51.675781 298.472656 L 54.785156 286.019531 L 55.445312 284.992188 L 55.945312 277.261719 L 71.050781 267.894531 L 73.722656 269.996094 L 76.179688 269.105469 L 77.855469 267.574219 L 79.03125 265.257812 L 79.03125 263.226562 L 79.882812 260.519531 L 85.40625 255.355469 L 87.964844 241.609375 L 89.421875 237.867188 L 94.621094 239.738281 L 95.351562 224.035156 L 89.527344 221.328125 L 89.734375 215.503906 L 96.496094 215.296875 L 102.113281 217.378906 L 104.714844 218.417969 L 121.105469 217.664062 L 132.894531 217.628906 Z M 141.289062 218.851562 "/>
</g>
</svg>
